<?xml version="1.0" encoding="utf-8"?>
<!DOCTYPE svg PUBLIC "-//W3C//DTD SVG 1.1//EN" "http://www.w3.org/Graphics/SVG/1.1/DTD/svg11.dtd">
<svg xmlns="http://www.w3.org/2000/svg" xmlns:xlink="http://www.w3.org/1999/xlink" style="display: none">
    <symbol id="svg-github" viewBox="0 0 32 32">
  <path clip-rule="evenodd" d="M16.003 0C7.17 0 .008 7.162.008 15.997c0 7.067 4.582 13.063 10.94 15.18.8.145 1.052-.33 1.052-.753 0-.38.008-1.442 0-2.777-4.45.967-5.37-2.107-5.37-2.107-.728-1.848-1.776-2.34-1.776-2.34-1.452-.992.11-.973.11-.973 1.604.113 2.45 1.65 2.45 1.65 1.427 2.442 3.743 1.736 4.654 1.328.146-1.034.56-1.74 1.017-2.14C9.533 22.663 5.8 21.29 5.8 15.16c0-1.747.622-3.174 1.645-4.292-.165-.404-.715-2.03.157-4.234 0 0 1.343-.43 4.398 1.64 1.276-.354 2.645-.53 4.005-.537 1.36.006 2.727.183 4.005.538 3.055-2.07 4.396-1.64 4.396-1.64.872 2.202.323 3.83.16 4.233 1.022 1.118 1.643 2.545 1.643 4.292 0 6.146-3.74 7.498-7.305 7.893C19.48 23.548 20 24.508 20 26v4.428c0 .428.258.9 1.07.746C27.422 29.054 32 23.062 32 15.997 32 7.162 24.838 0 16.003 0z" fill-rule="evenodd"/>
</symbol>
<symbol id="svg-twitter" viewBox="0 5.9 39.8 32">
  <path d="M38.3 10.4c-1.4.7-2.9 1-4.4 1.3 1.6-1 2.7-2.5 3.3-4.3-1.5.8-3.2 1.6-4.8 1.9-1.4-1.6-3.3-2.5-5.7-2.5-4.3 0-7.6 3.3-7.6 7.6 0 .7.2 1.1.3 1.8-6.5-.3-12-3.5-15.8-8.1-.5 1.2-.8 2.6-.8 3.9 0 2.6 1.4 4.9 3.3 6.3-1.3 0-2.5-.5-3.5-1.1v.2c0 3.7 2.6 6.7 6 7.4-.7.2-1.4.3-1.9.3s-1 0-1.6-.2c1 3.1 3.7 5.3 7.2 5.4-2.6 1.9-5.9 3.3-9.5 3.3-.7 0-1.3 0-1.9-.2 3.3 2.1 7.3 3.5 11.7 3.5 14 0 21.7-11.5 21.7-21.7v-1c1.5-.9 2.9-2.2 4-3.8z"/>
</symbol>

</svg>