<?xml version="1.0" encoding="utf-8"?>
<!DOCTYPE svg PUBLIC "-//W3C//DTD SVG 1.1//EN" "http://www.w3.org/Graphics/SVG/1.1/DTD/svg11.dtd">
<svg xmlns="http://www.w3.org/2000/svg" xmlns:xlink="http://www.w3.org/1999/xlink" style="display: none">
    <symbol id="svg-twitter" viewBox="0 5.9 39.8 32">
  <path d="M38.3 10.4c-1.4.7-2.9 1-4.4 1.3 1.6-1 2.7-2.5 3.3-4.3-1.5.8-3.2 1.6-4.8 1.9-1.4-1.6-3.3-2.5-5.7-2.5-4.3 0-7.6 3.3-7.6 7.6 0 .7.2 1.1.3 1.8-6.5-.3-12-3.5-15.8-8.1-.5 1.2-.8 2.6-.8 3.9 0 2.6 1.4 4.9 3.3 6.3-1.3 0-2.5-.5-3.5-1.1v.2c0 3.7 2.6 6.7 6 7.4-.7.2-1.4.3-1.9.3s-1 0-1.6-.2c1 3.1 3.7 5.3 7.2 5.4-2.6 1.9-5.9 3.3-9.5 3.3-.7 0-1.3 0-1.9-.2 3.3 2.1 7.3 3.5 11.7 3.5 14 0 21.7-11.5 21.7-21.7v-1c1.5-.9 2.9-2.2 4-3.8z"/>
</symbol>

</svg>