<svg xmlns="http://www.w3.org/2000/svg" viewBox="0 0 90 63.3">
    <path id="Triangle" fill="#ffffff" d="M208.2,523.18l24.32-12.6L208.2,497.89Z" transform="translate(-172.5 -479.86)"/>
    <path fill="#e62d27" d="M261.6,493.51s-.88-6.2-3.58-8.93c-3.42-3.58-7.26-3.6-9-3.81-12.59-.91-31.49-.91-31.49-.91h0s-18.89,0-31.49.91c-1.76.21-5.59.23-9,3.81-2.7,2.73-3.58,8.93-3.58,8.93a136.06,136.06,0,0,0-.9,14.57v6.83a136.06,136.06,0,0,0,.9,14.57s.88,6.2,3.58,8.93c3.42,3.59,7.92,3.47,9.92,3.85,7.2.69,30.6.9,30.6.9s18.91,0,31.51-.94c1.76-.21,5.6-.23,9-3.81,2.7-2.73,3.58-8.93,3.58-8.93a136.35,136.35,0,0,0,.9-14.57v-6.83A136.36,136.36,0,0,0,261.6,493.51Zm-53.39,29.67V497.89l24.32,12.69Z" transform="translate(-172.5 -479.86)"/>
</svg>