<?xml version="1.0" encoding="utf-8"?>
<!-- Generator: Adobe Illustrator 17.1.0, SVG Export Plug-In . SVG Version: 6.00 Build 0)  -->
<!DOCTYPE svg PUBLIC "-//W3C//DTD SVG 1.1//EN" "http://www.w3.org/Graphics/SVG/1.1/DTD/svg11.dtd">
<svg version="1.1" id="Layer_1" xmlns="http://www.w3.org/2000/svg" xmlns:xlink="http://www.w3.org/1999/xlink" x="0px" y="0px"
	 viewBox="0 5.9 39.8 32" enable-background="new 0 5.9 39.8 32" xml:space="preserve">
<g>
	<path fill="#000000" d="M38.3,10.4c-1.4,0.7-2.9,1-4.4,1.3c1.6-1,2.7-2.5,3.3-4.3C35.7,8.2,34,9,32.4,9.3c-1.4-1.6-3.3-2.5-5.7-2.5
		c-4.3,0-7.6,3.3-7.6,7.6c0,0.7,0.2,1.1,0.3,1.8c-6.5-0.3-12-3.5-15.8-8.1c-0.5,1.2-0.8,2.6-0.8,3.9c0,2.6,1.4,4.9,3.3,6.3
		c-1.3,0-2.5-0.5-3.5-1.1c0,0,0,0,0,0.2c0,3.7,2.6,6.7,6,7.4c-0.7,0.2-1.4,0.3-1.9,0.3s-1,0-1.6-0.2c1,3.1,3.7,5.3,7.2,5.4
		c-2.6,1.9-5.9,3.3-9.5,3.3c-0.7,0-1.3,0-1.9-0.2c3.3,2.1,7.3,3.5,11.7,3.5c14,0,21.7-11.5,21.7-21.7c0-0.5,0-0.7,0-1
		C35.8,13.3,37.2,12,38.3,10.4z"/>
</g>
</svg>
