<svg id="Layer_1" data-name="Layer 1" xmlns="http://www.w3.org/2000/svg" viewBox="0 0 337.8 119.18">
    <defs>
        <style>.cls-1,.cls-2{fill:#fff;}.cls-1{opacity:0.4;}</style>
    </defs>
    <polygon class="cls-1"
             points="71.25 4.6 68.61 3.17 38.21 59.29 37.96 59.43 38.05 59.59 37.96 59.76 38.21 59.89 68.61 116.01 71.25 114.58 41.46 59.59 71.25 4.6"/>
    <path class="cls-2"
          d="M260.09,483.57a7.89,7.89,0,0,0-2.35-5.71A59.67,59.67,0,0,0,198.43,424a4.76,4.76,0,1,0,0,9.53,50.13,50.13,0,0,1,49.84,45.43l0,.06H173.28a5.82,5.82,0,0,0-7.28,0H133.24a4.51,4.51,0,0,0,0,9h32.58a5.82,5.82,0,0,0,7.63,0h74.67l.14.2a50.13,50.13,0,0,1-49.84,45.43,4.76,4.76,0,1,0,0,9.53,59.67,59.67,0,0,0,59.31-53.88A7.89,7.89,0,0,0,260.09,483.57Z"
          transform="translate(-128.97 -423.98)"/>
    <path class="cls-2"
          d="M288.34,473.23a8.23,8.23,0,0,0-6.55,2.76,11.15,11.15,0,0,0-2.4,7.57q0,4.94,2.32,7.63a8.23,8.23,0,0,0,6.6,2.7,22.56,22.56,0,0,0,6-.95v2.57a18.5,18.5,0,0,1-6.46,1q-5.56,0-8.58-3.37t-3-9.59a15.13,15.13,0,0,1,1.46-6.82,10.45,10.45,0,0,1,4.2-4.51,12.72,12.72,0,0,1,6.46-1.58,15.6,15.6,0,0,1,6.92,1.45l-1.24,2.51A13.34,13.34,0,0,0,288.34,473.23Z"
          transform="translate(-128.97 -423.98)"/>
    <path class="cls-2"
          d="M302.73,485.67v10.47h-2.93V471h6.9q4.63,0,6.84,1.77a6.43,6.43,0,0,1,2.21,5.34q0,5-5.06,6.75l6.83,11.31h-3.46L308,485.67Zm0-2.51h4a6.93,6.93,0,0,0,4.54-1.23,4.58,4.58,0,0,0,1.45-3.69,4.2,4.2,0,0,0-1.47-3.6,8,8,0,0,0-4.73-1.1h-3.81Z"
          transform="translate(-128.97 -423.98)"/>
    <path class="cls-2"
          d="M343.45,483.52q0,6-3.06,9.5a10.75,10.75,0,0,1-8.5,3.46q-5.56,0-8.58-3.4t-3-9.6q0-6.15,3-9.53t8.61-3.38A10.72,10.72,0,0,1,340.4,474Q343.45,477.46,343.45,483.52Zm-20.06,0q0,5.11,2.18,7.76a8.89,8.89,0,0,0,12.65,0q2.14-2.63,2.14-7.76t-2.13-7.7a7.62,7.62,0,0,0-6.29-2.62,7.77,7.77,0,0,0-6.36,2.64Q323.39,478.48,323.39,483.52Z"
          transform="translate(-128.97 -423.98)"/>
    <path class="cls-2"
          d="M363.27,489.44a6.18,6.18,0,0,1-2.41,5.18,10.45,10.45,0,0,1-6.54,1.86,16.38,16.38,0,0,1-6.89-1.15v-2.82a18.06,18.06,0,0,0,3.37,1,17.73,17.73,0,0,0,3.62.38,7.3,7.3,0,0,0,4.41-1.11,3.64,3.64,0,0,0,1.48-3.09,4,4,0,0,0-.52-2.14A4.88,4.88,0,0,0,358,486a24.68,24.68,0,0,0-3.74-1.6,12,12,0,0,1-5-3,6.57,6.57,0,0,1-1.51-4.49,5.59,5.59,0,0,1,2.19-4.63,9.09,9.09,0,0,1,5.79-1.72,17,17,0,0,1,6.9,1.38l-.91,2.55a15.61,15.61,0,0,0-6.06-1.31,5.87,5.87,0,0,0-3.63,1,3.29,3.29,0,0,0-1.31,2.77,4.25,4.25,0,0,0,.48,2.14,4.54,4.54,0,0,0,1.63,1.53,20.21,20.21,0,0,0,3.5,1.54,13.87,13.87,0,0,1,5.45,3A6,6,0,0,1,363.27,489.44Z"
          transform="translate(-128.97 -423.98)"/>
    <path class="cls-2"
          d="M382.62,489.44a6.18,6.18,0,0,1-2.41,5.18,10.45,10.45,0,0,1-6.54,1.86,16.38,16.38,0,0,1-6.89-1.15v-2.82a18.06,18.06,0,0,0,3.37,1,17.73,17.73,0,0,0,3.62.38,7.3,7.3,0,0,0,4.41-1.11,3.64,3.64,0,0,0,1.48-3.09,4,4,0,0,0-.52-2.14,4.88,4.88,0,0,0-1.76-1.54,24.68,24.68,0,0,0-3.74-1.6,12,12,0,0,1-5-3,6.57,6.57,0,0,1-1.51-4.49,5.59,5.59,0,0,1,2.19-4.63,9.09,9.09,0,0,1,5.79-1.72A17,17,0,0,1,382,472l-.91,2.55a15.61,15.61,0,0,0-6.06-1.31,5.87,5.87,0,0,0-3.63,1,3.29,3.29,0,0,0-1.31,2.77,4.25,4.25,0,0,0,.48,2.14,4.54,4.54,0,0,0,1.63,1.53,20.21,20.21,0,0,0,3.5,1.54,13.87,13.87,0,0,1,5.45,3A6,6,0,0,1,382.62,489.44Z"
          transform="translate(-128.97 -423.98)"/>
    <path class="cls-2"
          d="M387.77,471h7.11q5,0,7.25,1.5a5.29,5.29,0,0,1,2.24,4.73,5.47,5.47,0,0,1-1.25,3.69,6,6,0,0,1-3.64,1.88V483q5.73,1,5.73,6a6.47,6.47,0,0,1-2.28,5.27,9.71,9.71,0,0,1-6.38,1.89h-8.78Zm2.93,10.78h4.82a7.85,7.85,0,0,0,4.46-1,3.76,3.76,0,0,0,1.36-3.28,3.32,3.32,0,0,0-1.52-3.06,9.46,9.46,0,0,0-4.82-.94h-4.3Zm0,2.48v9.42h5.25a7.48,7.48,0,0,0,4.59-1.18,4.35,4.35,0,0,0,1.54-3.69,3.91,3.91,0,0,0-1.58-3.44,8.42,8.42,0,0,0-4.79-1.1Z"
          transform="translate(-128.97 -423.98)"/>
    <path class="cls-2"
          d="M432.46,483.52q0,6-3.06,9.5a10.74,10.74,0,0,1-8.5,3.46q-5.56,0-8.58-3.4t-3-9.6q0-6.15,3-9.53t8.61-3.38a10.72,10.72,0,0,1,8.47,3.44Q432.46,477.46,432.46,483.52Zm-20.06,0q0,5.11,2.18,7.76a7.73,7.73,0,0,0,6.33,2.64,7.65,7.65,0,0,0,6.32-2.63q2.13-2.63,2.13-7.76t-2.13-7.7a7.62,7.62,0,0,0-6.29-2.62,7.77,7.77,0,0,0-6.36,2.64Q412.4,478.48,412.4,483.52Z"
          transform="translate(-128.97 -423.98)"/>
    <path class="cls-2"
          d="M460,496.14h-2.89l-5.08-16.85q-.36-1.12-.81-2.82a16.18,16.18,0,0,1-.46-2,39.27,39.27,0,0,1-1.21,5l-4.92,16.75h-2.89L435.08,471h3.1l4,15.55a58,58,0,0,1,1.21,5.92,42.72,42.72,0,0,1,1.38-6.16L449.25,471h3.1l4.73,15.44a47,47,0,0,1,1.39,6,51.5,51.5,0,0,1,1.24-6l4-15.51h3.1Z"
          transform="translate(-128.97 -423.98)"/>
</svg>
